<?xml version="1.0" standalone="no"?><!DOCTYPE svg PUBLIC "-//W3C//DTD SVG 1.1//EN" "http://www.w3.org/Graphics/SVG/1.1/DTD/svg11.dtd"><svg class="icon" width="200px" height="200.00px" viewBox="0 0 1024 1024" version="1.1" xmlns="http://www.w3.org/2000/svg"><path fill="#2c2c2c" d="M550.816 192c53.152 0 110.496 46.912 110.496 122.72 0 34.4-1.792 58.464-5.248 78.24h103.584c34.688 0 65.216 15.616 85.984 43.904a100.16 100.16 0 0 1 17.056 75.968c-7.36 39.616-52.32 242.72-61.44 260.864-8.704 17.184-21.888 31.68-38.144 41.888a106.848 106.848 0 0 1-57.056 16.416H253.184C221.184 832 192 803.008 192 771.168l0.256-296.8c0-31.424 25.696-57.024 57.312-57.024l86.976-0.448c59.328-4.224 106.88-54.88 108.544-117.696C445.056 238.432 490.528 192 550.816 192z m0 64c-23.84 0-39.808 15.296-41.696 41.856-4.384 86.336-53.376 150.048-125.12 174.016v295.872L705.888 768a42.88 42.88 0 0 0 37.6-21.984c7.488-13.856 52.448-225.024 56.48-244.864 4.032-19.84-13.696-44.192-40.32-44.192h-190.464l17.44-49.472c6.4-19.296 10.688-40.608 10.688-92.768 0-40.064-27.744-58.72-46.496-58.72zM320 480.928l-63.744 0.384L256 767.648l64 0.064v-286.784z" /></svg>